<?xml version="1.0" encoding="UTF-8" standalone="no"?>
<!-- Created with Inkscape (http://www.inkscape.org/) -->

<svg
   xmlns:dc="http://purl.org/dc/elements/1.1/"
   xmlns:cc="http://creativecommons.org/ns#"
   xmlns:rdf="http://www.w3.org/1999/02/22-rdf-syntax-ns#"
   xmlns:svg="http://www.w3.org/2000/svg"
   xmlns="http://www.w3.org/2000/svg"
   xmlns:sodipodi="http://sodipodi.sourceforge.net/DTD/sodipodi-0.dtd"
   xmlns:inkscape="http://www.inkscape.org/namespaces/inkscape"
   width="397.80936mm"
   height="227.6969mm"
   viewBox="0 0 397.80936 227.6969"
   version="1.1"
   id="svg8"
   inkscape:version="0.92.4 (5da689c313, 2019-01-14)"
   sodipodi:docname="codeahoi.svg">
  <defs
     id="defs2" />
  <sodipodi:namedview
     id="base"
     pagecolor="#ffffff"
     bordercolor="#666666"
     borderopacity="1.0"
     inkscape:pageopacity="0.0"
     inkscape:pageshadow="2"
     inkscape:zoom="0.91489842"
     inkscape:cx="690.13738"
     inkscape:cy="332.86881"
     inkscape:document-units="mm"
     inkscape:current-layer="layer1"
     showgrid="false"
     inkscape:snap-bbox="true"
     inkscape:bbox-paths="true"
     inkscape:bbox-nodes="true"
     inkscape:snap-bbox-edge-midpoints="true"
     inkscape:snap-bbox-midpoints="true"
     inkscape:object-paths="true"
     inkscape:snap-intersection-paths="true"
     inkscape:snap-global="true"
     fit-margin-top="0"
     fit-margin-left="0"
     fit-margin-right="0"
     fit-margin-bottom="0"
     inkscape:window-width="2556"
     inkscape:window-height="1401"
     inkscape:window-x="2560"
     inkscape:window-y="18"
     inkscape:window-maximized="0"
     inkscape:pagecheckerboard="true" />
  <metadata
     id="metadata5">
    <rdf:RDF>
      <cc:Work
         rdf:about="">
        <dc:format>image/svg+xml</dc:format>
        <dc:type
           rdf:resource="http://purl.org/dc/dcmitype/StillImage" />
        <dc:title></dc:title>
      </cc:Work>
    </rdf:RDF>
  </metadata>
  <g
     inkscape:label="Layer 1"
     inkscape:groupmode="layer"
     id="layer1"
     transform="translate(460.58002,110.01755)">
    <path
       style="opacity:1;vector-effect:none;fill:#ffffff;fill-opacity:1;stroke:none;stroke-width:1.44437647;stroke-linecap:butt;stroke-linejoin:miter;stroke-miterlimit:4;stroke-dasharray:none;stroke-dashoffset:0;stroke-opacity:1;paint-order:normal"
       d="m -67.697828,27.334512 c -70.428012,12.426131 -140.754892,25.634522 -211.187192,38.008953 -4.1636,0.934788 -8.34513,-0.779801 -12.51196,-1.041033 -54.84352,-7.953584 -109.68841,-16.069491 -164.49864,-24.220484 -1.30369,1.154176 0.89252,2.668558 1.43315,3.686125 19.59702,23.409774 39.75661,46.192743 59.60715,69.319737 7.3488,0.25218 14.83423,-0.26033 22.22854,-0.57939 37.49355,-2.32119 74.54923,-9.76943 111.54344,-16.758126 38.10315,-7.309146 76.1228,-15.586544 114.60963,-19.861883 12.68354,-1.360575 25.41453,-2.03142 38.15646,-2.500579 8.04975,-8.269557 15.765351,-17.12679 23.682998,-25.626874 5.876236,-6.4699 11.831235,-12.852944 17.606334,-19.439481 0.289397,-0.528717 -0.177892,-1.16265 -0.66991,-0.986965 z"
       id="path878"
       inkscape:connector-curvature="0" />
    <path
       style="opacity:1;vector-effect:none;fill:#ffffff;fill-opacity:1;stroke:none;stroke-width:1.44437647;stroke-linecap:butt;stroke-linejoin:miter;stroke-miterlimit:4;stroke-dasharray:none;stroke-dashoffset:0;stroke-opacity:1;paint-order:normal"
       d="m -177.23131,7.8067069 c -0.24892,1.9047352 1.72786,3.4634631 2.33833,5.2164831 5.68602,9.896532 10.99967,20.097393 17.04943,29.706905 1.47086,2.272773 4.13171,0.125671 6.07865,0.244852 27.10284,-5.016879 54.273425,-9.576349 81.326246,-14.934251 0.918667,0.224298 2.348657,-1.247019 0.934138,-1.700618 C -105.2763,20.211669 -141.00768,13.768142 -176.77956,7.6396831 l -0.33972,0.1256001 z"
       id="path857"
       inkscape:connector-curvature="0" />
    <path
       style="opacity:1;vector-effect:none;fill:#ffffff;fill-opacity:1;stroke:none;stroke-width:1.44437647;stroke-linecap:butt;stroke-linejoin:miter;stroke-miterlimit:4;stroke-dasharray:none;stroke-dashoffset:0;stroke-opacity:1;paint-order:normal"
       d="m -341.4399,17.886539 c -37.65565,6.998128 -75.30426,14.090019 -112.92456,21.318453 -1.25244,1.376921 1.28517,1.685509 2.05024,1.746169 26.78691,4.107137 53.59922,8.015406 80.40574,11.948758 1.87311,0.346333 4.11971,0.770473 5.41389,-1.279943 8.83175,-10.622407 17.19754,-21.750708 25.68141,-32.737678 0.28684,-0.501681 -0.14254,-1.151779 -0.62672,-0.995759 z"
       id="path843"
       inkscape:connector-curvature="0" />
    <path
       style="fill:none;stroke:#000000;stroke-width:5.92666674;stroke-linecap:butt;stroke-linejoin:miter;stroke-miterlimit:4;stroke-dasharray:none;stroke-opacity:1"
       d="M -457.88524,40.105045 -233.98707,-2.1857833 -65.733484,27.135715"
       id="path817-3"
       inkscape:connector-curvature="0"
       sodipodi:nodetypes="ccc" />
    <path
       style="opacity:1;vector-effect:none;fill:#ffffff;fill-opacity:1;stroke:none;stroke-width:1.44437647;stroke-linecap:butt;stroke-linejoin:miter;stroke-miterlimit:4;stroke-dasharray:none;stroke-dashoffset:0;stroke-opacity:1;paint-order:normal"
       d="m -242.77643,-105.24437 c -0.9694,18.604656 -1.33165,37.29878 -2.0104,55.939833 -1.19008,36.352198 -2.19859,72.712884 -3.51641,109.059182 0.88394,1.499829 3.04656,-0.282946 4.42388,-0.07294 28.60172,-5.315911 57.28466,-10.101329 85.81553,-15.891918 1.18001,-1.211882 -1.03886,-2.894008 -1.38231,-4.211052 -27.22706,-48.2653255 -54.55767,-96.457147 -82.15285,-144.445905 -0.1953,-0.51724 -0.78633,-0.94419 -1.17744,-0.3772 z"
       id="path855"
       inkscape:connector-curvature="0" />
    <path
       style="opacity:1;vector-effect:none;fill:#ffffff;fill-opacity:1;stroke:none;stroke-width:1.44437647;stroke-linecap:butt;stroke-linejoin:miter;stroke-miterlimit:4;stroke-dasharray:none;stroke-dashoffset:0;stroke-opacity:1;paint-order:normal"
       d="m -243.6576,-99.267439 c -1.13339,2.503739 -0.98799,5.714347 -1.63199,8.479763 -7.84258,51.285017 -15.49724,102.621206 -23.19823,153.925973 0.60045,1.78035 2.7273,0.140302 3.90583,0.289879 5.39923,-1.074418 10.88073,-1.748731 16.21809,-3.160466 0.85122,-2.162555 0.27174,-4.902261 0.6017,-7.261228 1.81496,-50.2823089 3.30661,-100.581707 4.91885,-150.871391 0,-0.629394 0.0212,-1.558349 -0.81425,-1.40253 z"
       id="path851"
       inkscape:connector-curvature="0" />
    <path
       style="opacity:1;vector-effect:none;fill:#ffffff;fill-opacity:1;stroke:none;stroke-width:1.44437647;stroke-linecap:butt;stroke-linejoin:miter;stroke-miterlimit:4;stroke-dasharray:none;stroke-dashoffset:0;stroke-opacity:1;paint-order:normal"
       d="m -243.90299,-105.6032 c -40.77664,51.846594 -81.3184,103.9392409 -121.78727,156.101786 -0.52336,0.828597 -2.56013,2.487807 -0.94027,3.088927 28.43944,4.381887 56.90602,8.616758 85.36161,12.806576 4.21114,-0.659429 8.44209,-1.36277 12.57684,-2.4806 1.16694,-3.269855 1.2022,-7.119552 1.9339,-10.603197 8.05663,-52.7593633 16.13095,-105.518544 23.79351,-158.354072 0.0675,-0.5816 -0.58683,-0.94118 -0.93832,-0.55942 z"
       id="path845"
       inkscape:connector-curvature="0" />
    <path
       sodipodi:nodetypes="ccc"
       style="fill:none;fill-opacity:1;stroke:#000000;stroke-width:5.92666674;stroke-linecap:round;stroke-linejoin:round;stroke-miterlimit:4;stroke-dasharray:none;stroke-opacity:1"
       d="m -367.78692,53.303316 125.04935,-160.357766 85.44114,150.781078"
       id="path834"
       inkscape:connector-curvature="0" />
    <path
       sodipodi:nodetypes="ccc"
       style="fill:none;fill-opacity:1;stroke:#000000;stroke-width:5.92666674;stroke-linecap:round;stroke-linejoin:round;stroke-miterlimit:4;stroke-dasharray:none;stroke-opacity:1"
       d="m -248.0393,60.168946 5.30173,-167.223396 -25.65468,170.911285"
       id="path836"
       inkscape:connector-curvature="0" />
    <path
       style="fill:none;fill-opacity:1;stroke:#000000;stroke-width:5.92666674;stroke-linecap:butt;stroke-linejoin:round;stroke-miterlimit:4;stroke-dasharray:none;stroke-opacity:1"
       d="M -108.07232,73.34689 -65.733484,27.135715 -281.06538,66.153168 -457.61714,39.992831 -394.16247,113.08732"
       id="path817"
       inkscape:connector-curvature="0" />
    <path
       style="fill:none;fill-opacity:1;stroke:#ffffff;stroke-width:5.92700005;stroke-linecap:round;stroke-linejoin:round;stroke-miterlimit:4;stroke-dasharray:none;stroke-opacity:1"
       clip-path="none"
       d="M -69.231208,78.318462 C -172.71912,57.710142 -346.57628,139.26949 -455.91124,107.0503"
       id="path83777"
       inkscape:connector-curvature="0" />
    <path
       inkscape:connector-curvature="0"
       style="fill:none;fill-opacity:1;stroke:#000000;stroke-width:5.92700005;stroke-linecap:round;stroke-linejoin:round;stroke-miterlimit:4;stroke-dasharray:none;stroke-opacity:1"
       clip-path="none"
       d="M -69.231214,76.730959 C -172.71912,56.122639 -346.57627,137.68199 -455.91123,105.46279"
       id="path83777-8" />
    <!--text
       xml:space="preserve"
       style="font-style:normal;font-weight:normal;font-size:50.79999924px;line-height:1.25;font-family:sans-serif;letter-spacing:0px;word-spacing:0px;fill:#000000;fill-opacity:0.03938731;stroke:none;stroke-width:0.26458332;"
       x="-287.71841"
       y="94.758812"
       id="text852-5"><tspan
         sodipodi:role="line"
         id="tspan850-6"
         x="-287.71841"
         y="94.758812"
         style="font-style:normal;font-variant:normal;font-weight:normal;font-stretch:normal;font-size:25.39999962px;font-family:'Amatic SC';-inkscape-font-specification:'Amatic SC';stroke-width:0.26458332;fill:#000000;fill-opacity:0.0;">.de</tspan></text-->
  </g>
</svg>
