<?xml version="1.0" encoding="utf-8"?>
<!-- Generator: Adobe Illustrator 24.3.0, SVG Export Plug-In . SVG Version: 6.00 Build 0)  -->
<svg version="1.1" xmlns="http://www.w3.org/2000/svg" xmlns:xlink="http://www.w3.org/1999/xlink" x="0px" y="0px"
	 viewBox="0 0 949 967.8" style="enable-background:new 0 0 949 967.8;" xml:space="preserve">
<style type="text/css">
	.st0{display:none;opacity:0.5;}
	.st1{fill:#FFFFFF;}
	.st2{fill:#4D4B4B;}
	.st3{fill:#0594DB;}
	.st4{fill:#0094DB;}
	.st5{fill:none;}
	.st6{fill:none;stroke:#000000;stroke-width:48;stroke-miterlimit:10;}
	.st7{fill:none;stroke:#000000;stroke-width:46;stroke-miterlimit:10;}
</style>
<g id="referenz" class="st0">
</g>
<g id="e">
</g>
<g id="typo">
</g>
<g id="a">
	<circle class="st4" cx="473.5" cy="486.3" r="470.1"/>
	<g>
		<path class="st1" d="M512.6,467.5c8.2-10.1,16.5-20.1,24.9-30c8.2-9.7,14.7-21.6,29.1-16.5c25.1,9,48.4,10.9,73.1-0.3
			c47.5-21.5,66.9-74.8,45.6-122.1c-1.1-2.4-2.4-4.5-4.4-6.3c-2.8-2.5-5.3-2.8-8.8-0.7c-6.5,3.9-11.3,9.6-15.8,15.4
			c-1.1,1.4-1,2.8-0.4,4.5c1.2,3.6,2.8,7.1,3.3,11.1c0.9,8.5-0.1,16.5-3,24.6c-4.3,12.3-12.3,21.6-21.8,30
			c-11.2,9.9-25.3,12.3-39.3,14c-11.2,1.4-21.5-2.2-31.1-8.4c-15.1-9.8-23.6-24.3-25.3-41.5c-2.1-21.5,3.7-42.1,21.8-55.7
			c17.4-13.1,35.8-11.4,56-9c2.3,0.3,3.8-0.4,4.8-2.2c3.6-6.3,14.4-19.9,10.5-27.7c-3.3-6.7-13.6-5.7-19.8-6.3
			c-9.3-0.9-18.5-2.3-27.9-1.2c-4.8,0.6-9.6,1-14.3,1.8c-32.2,5.5-58.4,28.1-68.1,59.5c-6.7,21.7-4.5,46.1,6,66.2
			c13.8,26.7-16.2,48.2-33.3,67.2l-5.9,6.8c-8.1,9.2-16,18.5-23.6,28.1c-16.8,21.6-36.9,55.9-55.5,14.3c-4.5-10-7.3-20.7-10-31.3
			c-1.2-4.7-1.5-11.8-3.8-16c-0.6-1.1-1.9-2-3.2-1.9c-3.7,0.4-5.5,10.7-6.3,13.5c-1.8,6.5-2.4,13.4-2.5,20.1
			c-0.3,16.2,1.7,32.1,5.4,47.8c1.8,7.8,4,15.6,8,22.6c5,8.7,5,8.7-1.3,16.3c-2.1,2.5-4.4,4.7-6.7,6.9c-8.2,7.7-15.8,16-22.5,25
			c-2.5,3.4-4.3,7.2-5.2,11.3c-2.1,9.6-1.2,19.2,0.7,28.7c0.4,1.9,1.4,3.6,2.1,5.4c1.3,3,3.8,4.3,7,4.1c1.9-0.1,3.9-0.2,5.8-0.5
			c5.1-0.8,10.1-1.9,15.2-2.6c4.8-0.7,9.4-2.1,13.9-3.9c5.5-2.2,9.7-6.1,13.3-10.7c8-10.4,16-20.9,23.9-31.5
			c3.7-4.9,15.6,1.8,19.9,3c9.3,2.5,18.8,3.8,28.4,4.1c2.9,0.1,5.9,0,8.8-0.1c15.6-0.8,24.4-3.4,38.5-10.2c2.9-1.4,8.4-5.3,10.2-7.9
			c1.8-2.6,1.1-2.9-1.2-5.1c-2.4-2.3-6.3-1.7-9.6-1.2c-19.5,3.3-38.4-1.6-55.6-12.1c-18.3-11.2,3.6-27.4,12.2-38.2
			c19-23.7,35.7-47.7,55-71.1c2.8-3.4,2.5-6.8,5.3-10.2"/>
		<g>
			<path class="st1" d="M530.9,712.2c-17.1,11-30.9,18.7-52,18.3c-20.2-0.4-35.2-6.1-49.8-20.4c-12.2-12-15.5-37-36.6-54.5
				c-12.3-10.2-28.2-8.8-43.3-10c-3.2-0.3-6.4-0.5-9.3-1.7c-6.4-2.7-8-8.2-8.7-14.5c-3.2-29.4-23.2-47.5-49.2-59.9
				c-11.7-5.6-26-14.1-30.4-19.7c-4.4-5.6-6.7-9.2-9.9-15.4c-9.5-17.9-9.7-36.1-1.2-54.4c1.7-3.7,3.3-7.4,4.9-11.1
				c0.4-1,0.9-2,1.2-3c2.4-9-16.3,4-18.2,5.6c-5.8,5-10.5,11.2-14,18.1c-6.7,13.1-9,28.5-9.2,42.8c-0.1,9.6,1.8,18.7,4.1,27.9
				c3.7,15.4,22.4,37.4,32.3,45.3c10.3,8.3,20.1,17.3,29.2,26.8c7.1,7.4,11.3,16.2,11.8,26.8c0.6,11.7-0.9,23.1-3.3,34.5
				c-0.5,2.4-1.1,4.7-1.5,7.1c-0.3,2.2-2,5-0.6,6.3c1.2,1.1,5.6-1.3,6.9-1.9c1.9-0.9,4.1-1.4,6.1-2.1c9.6-3.5,19.2-7,29.3-9.1
				c15.1-3.2,29-0.5,41.5,8.6c4.6,3.3,8.8,7.2,12.7,11.3c28.5,29.5,42.4,49.1,86.8,49.6c8.9,0.1,18.1-1.6,27.6-5.5
				c20.7-8.6,39.8-20.2,50.1-41c0.8-1.7,1.6-3.8,0.5-5.4C537,709.3,533.3,710.7,530.9,712.2z"/>
			<path class="st1" d="M226.5,450.7c1.4,1,3.2,1,5,0.9c8.4-0.3,25.4-3.3,26.5,10.2c0.4,4.8,2.2,9.4,2.2,14.4c0,1.2,0.7,2.6,1.3,3.7
				c0.8,1.5,2.6,1.8,4.1,1.1c1.5-0.8,2.6-1.8,3.6-3.2c2.3-3.3,6-14.4,6.7-18c2-11,3.5-40.8-1.2-40.8c-12,0.2-27.9,8.4-35,12.2
				c-4.4,2.4-9,6.2-12.4,9.8C224.6,443.7,223.5,448.6,226.5,450.7z"/>
			<path class="st1" d="M530.5,675.7c-3.6,2.2-12.7,8.7-10.1,14.1c2.5,5.2,14.8,2.5,19.1,2.5c11.9,0,10.4,15.5,11.2,23.5
				c0.1,1.4,0.3,2.8,1.1,3.9c1.3,1.6,3.8,1.8,5.6,0.9c1.9-0.9,3.2-2.5,4.4-4.2c5.6-7.9,8.8-17.2,12-26.3c1.3-3.8,2.6-7.6,3.1-11.6
				c0.1-1,0.2-2,0.2-3.1C577,649.7,541.3,668.8,530.5,675.7z"/>
		</g>
		<path class="st1" d="M627.8,296.7c5.2,11.4,20.5,0.7,26.7-4.2c10.6-8.3,25.5-19.8,31.7-31.9c4.8-9.4-0.8-20.7-11.5-22
			c-18.6-2.3-31.6,19.3-39.3,33c-2.9,5.1-8.5,13.8-8.5,20.8C626.9,293.9,627.2,295.3,627.8,296.7z"/>
	</g>
</g>
<g id="anker">
</g>
<g id="vern_typo">
</g>
</svg>
